P3
# Created by GIMP version 2.10.30 PNM plug-in
5 5
255
255
255
255
255
255
255
255
255
255
255
255
255
255
255
255
255
255
255
255
0
0
255
255
255
255
255
0
255
255
255
255
255
255
48
0
255
255
255
255
48
0
255
255
255
255
255
255
255
255
255
255
0
255
22
255
255
255
255
255
255
255
255
255
255
255
255
255
255
255
255
255
255
255
255
255
